<svg xmlns="http://www.w3.org/2000/svg" xmlns:xlink="http://www.w3.org/1999/xlink" width="500" zoomAndPan="magnify" viewBox="0 0 375 374.999991" height="500" preserveAspectRatio="xMidYMid meet" version="1.0"><defs><g/></defs><g fill="#ffffff" fill-opacity="1"><g transform="translate(87.438822, 196.352858)"><g><path d="M 31.445312 -7.347656 C 31.253906 -7.636719 30.867188 -7.699219 30.609375 -7.507812 C 27.324219 -5.1875 24.359375 -2.964844 21.652344 -0.871094 C 19.816406 -3.898438 14.917969 -5.894531 8.378906 -8.539062 C 7.539062 -8.859375 6.703125 -9.214844 5.832031 -9.570312 C 3.253906 -10.601562 2.351562 -12.210938 3.0625 -14.433594 C 4.027344 -17.527344 8.085938 -21.621094 13.597656 -25.132812 C 18.847656 -28.449219 24.003906 -30.320312 26.421875 -29.769531 C 27.195312 -29.609375 28.0625 -29.160156 27.804688 -27.355469 C 27.742188 -27.03125 28 -26.710938 28.320312 -26.644531 C 28.675781 -26.613281 28.996094 -26.839844 29.03125 -27.195312 C 29.417969 -29.933594 27.742188 -30.738281 26.710938 -30.996094 C 20.847656 -32.316406 4.253906 -22.359375 1.867188 -14.820312 C 1 -11.984375 2.222656 -9.699219 5.347656 -8.410156 C 6.21875 -8.054688 7.089844 -7.699219 7.925781 -7.378906 C 14.949219 -4.542969 19.265625 -2.675781 20.683594 -0.128906 C 9.28125 8.796875 3.480469 15.175781 4.445312 17.914062 C 4.609375 18.367188 5.089844 19.042969 6.445312 19.042969 C 6.539062 19.042969 6.667969 19.042969 6.765625 19.042969 C 11.082031 18.71875 20.492188 12.277344 22.296875 3.15625 C 22.523438 2.09375 22.457031 1.128906 22.199219 0.257812 C 24.9375 -1.835938 27.96875 -4.09375 31.316406 -6.476562 C 31.609375 -6.703125 31.671875 -7.089844 31.445312 -7.347656 Z M 21.070312 2.933594 C 19.332031 11.632812 10.214844 17.527344 6.667969 17.816406 C 6.347656 17.816406 5.734375 17.816406 5.636719 17.496094 C 5.285156 16.527344 7.089844 13.789062 10.246094 10.601562 C 12.921875 7.863281 16.5625 4.671875 21.105469 1.09375 C 21.234375 1.675781 21.199219 2.253906 21.070312 2.933594 Z M 21.070312 2.933594 "/></g></g></g><g fill="#ffffff" fill-opacity="1"><g transform="translate(117.656269, 196.352858)"><g><path d="M 11.664062 -6.992188 C 11.375 -7.21875 10.988281 -7.152344 10.792969 -6.894531 C 9.441406 -5.15625 7.21875 -3.707031 5.507812 -4.027344 C 5.542969 -4.253906 5.574219 -4.480469 5.574219 -4.703125 C 5.800781 -8.34375 4.671875 -9.085938 3.996094 -9.214844 C 3.222656 -9.375 2.417969 -8.796875 2.03125 -7.828125 C 1.867188 -7.894531 1.675781 -7.894531 1.515625 -7.765625 C 0.226562 -6.960938 -0.835938 -4.898438 -0.257812 -2.675781 C 0.128906 -1.351562 1.03125 -0.515625 2.222656 -0.515625 C 3.351562 -0.515625 4.542969 -1.351562 5.15625 -2.835938 C 7.410156 -2.351562 10.117188 -4.027344 11.761719 -6.121094 C 11.984375 -6.410156 11.921875 -6.796875 11.664062 -6.992188 Z M 2.253906 -1.738281 C 2.222656 -1.738281 2.222656 -1.738281 2.222656 -1.738281 C 1.417969 -1.773438 1.0625 -2.546875 0.964844 -2.996094 C 0.644531 -4.09375 0.902344 -5.605469 1.804688 -6.445312 C 1.867188 -5.347656 2.480469 -4.15625 4.027344 -3.320312 C 3.578125 -2.289062 2.804688 -1.738281 2.253906 -1.738281 Z M 4.351562 -4.769531 C 4.316406 -4.703125 4.316406 -4.640625 4.316406 -4.574219 C 3.09375 -5.378906 2.898438 -6.410156 3.125 -7.21875 C 3.285156 -7.734375 3.609375 -7.992188 3.769531 -7.992188 C 3.929688 -7.957031 4.480469 -7.347656 4.351562 -4.769531 Z M 4.351562 -4.769531 "/></g></g></g><g fill="#ffffff" fill-opacity="1"><g transform="translate(127.964992, 196.352858)"><g><path d="M 12.824219 -6.960938 C 12.535156 -7.121094 12.148438 -7.023438 11.984375 -6.734375 C 8.925781 -1.835938 6.347656 0.355469 5.800781 0.160156 C 5.800781 0.160156 5.15625 -0.191406 5.765625 -3.898438 C 5.992188 -5.15625 6.089844 -5.863281 5.476562 -6.121094 C 4.898438 -6.347656 4.542969 -5.863281 3.867188 -4.898438 C 3.320312 -4.125 2.578125 -3.09375 1.773438 -2.382812 C 1.675781 -2.320312 1.320312 -1.996094 1.160156 -2.125 C 0.675781 -2.511719 0.578125 -4.609375 1.707031 -6.539062 C 1.902344 -6.832031 1.773438 -7.21875 1.480469 -7.410156 C 1.191406 -7.570312 0.804688 -7.476562 0.644531 -7.183594 C -0.644531 -4.929688 -0.773438 -2.125 0.355469 -1.191406 C 0.644531 -0.933594 1.449219 -0.484375 2.578125 -1.417969 C 3.320312 -2.0625 3.964844 -2.898438 4.480469 -3.609375 C 4.027344 -0.613281 4.285156 0.902344 5.347656 1.320312 C 5.507812 1.386719 5.671875 1.386719 5.800781 1.386719 C 8.25 1.386719 12.210938 -4.800781 13.015625 -6.089844 C 13.210938 -6.378906 13.113281 -6.765625 12.824219 -6.960938 Z M 12.824219 -6.960938 "/></g></g></g><g fill="#ffffff" fill-opacity="1"><g transform="translate(139.497877, 196.352858)"><g><path d="M 6.539062 -8.507812 C 5.089844 -8.34375 3.929688 -8.183594 2.609375 -8.054688 C 2.738281 -8.601562 2.867188 -9.117188 2.996094 -9.632812 C 3.027344 -9.632812 3.027344 -9.664062 3.0625 -9.699219 C 6.347656 -14.917969 9.117188 -21.265625 8.054688 -22.910156 C 7.828125 -23.199219 7.507812 -23.328125 7.183594 -23.261719 C 5.347656 -22.972656 3.414062 -16.109375 2.835938 -14.015625 C 2.351562 -12.179688 1.835938 -10.148438 1.320312 -7.957031 C 0.449219 -7.863281 -0.515625 -7.796875 -1.675781 -7.699219 C -1.996094 -7.667969 -2.253906 -7.378906 -2.222656 -7.023438 C -2.222656 -6.703125 -1.933594 -6.476562 -1.609375 -6.476562 C -1.609375 -6.476562 -1.578125 -6.476562 -1.578125 -6.476562 C -0.578125 -6.539062 0.257812 -6.605469 1 -6.667969 C -0.160156 -1.804688 -1.386719 3.640625 -2.449219 8.730469 C -3.222656 12.40625 -3.835938 15.53125 -4.1875 17.816406 C -4.832031 21.621094 -4.769531 22.070312 -4.15625 22.265625 C -4.09375 22.265625 -3.996094 22.296875 -3.929688 22.296875 C -3.382812 22.296875 -3.09375 21.492188 -2.804688 20.683594 C -2.675781 20.363281 -2.867188 20.007812 -3.191406 19.878906 C -3.222656 19.878906 -3.253906 19.847656 -3.285156 19.847656 C -2.675781 15.59375 -0.257812 3.867188 2.320312 -6.796875 C 3.835938 -6.925781 5.089844 -7.089844 6.703125 -7.28125 C 7.023438 -7.347656 7.28125 -7.636719 7.21875 -7.992188 C 7.183594 -8.3125 6.863281 -8.570312 6.539062 -8.507812 Z M 6.992188 -21.554688 C 6.863281 -20.394531 6.152344 -17.816406 4.125 -13.984375 C 5.347656 -18.496094 6.410156 -20.683594 6.992188 -21.554688 Z M 6.992188 -21.554688 "/></g></g></g><g fill="#ffffff" fill-opacity="1"><g transform="translate(146.810629, 196.352858)"><g><path d="M 9.410156 -7.3125 C 9.117188 -7.507812 8.765625 -7.410156 8.570312 -7.121094 C 6.410156 -3.640625 2.804688 -0.355469 1.707031 -0.804688 C 1.578125 -0.871094 0.546875 -1.480469 1.964844 -6.925781 C 2.03125 -7.28125 1.835938 -7.605469 1.515625 -7.699219 C 1.160156 -7.765625 0.835938 -7.570312 0.742188 -7.25 C -0.417969 -2.707031 -0.257812 -0.289062 1.191406 0.320312 C 1.417969 0.417969 1.644531 0.449219 1.867188 0.449219 C 4.285156 0.449219 7.992188 -3.867188 9.632812 -6.476562 C 9.792969 -6.765625 9.699219 -7.152344 9.410156 -7.3125 Z M 1.804688 -9.921875 C 3.449219 -9.828125 3.414062 -11.890625 2.09375 -11.4375 C 1.417969 -11.246094 0.546875 -9.988281 1.804688 -9.921875 Z M 1.804688 -9.921875 "/></g></g></g><g fill="#ffffff" fill-opacity="1"><g transform="translate(154.960961, 196.352858)"><g><path d="M 13.46875 -7.152344 C 13.179688 -7.28125 12.792969 -7.152344 12.664062 -6.863281 C 10.214844 -1.867188 8.378906 -0.289062 7.507812 -0.449219 C 7.152344 -0.515625 5.992188 -1.191406 5.703125 -6.832031 C 5.703125 -7.089844 5.507812 -7.3125 5.285156 -7.378906 C 5.027344 -7.441406 4.738281 -7.378906 4.609375 -7.152344 C 4.414062 -6.925781 4.222656 -6.667969 4.027344 -6.378906 C 3.222656 -5.285156 2.160156 -3.800781 0.871094 -2.417969 C 0.675781 -2.191406 0.515625 -2.0625 0.417969 -1.996094 C 0.191406 -3.125 1.386719 -7.441406 3.285156 -8.796875 C 3.835938 -9.183594 4.574219 -9.472656 5.574219 -8.3125 C 5.800781 -8.054688 6.1875 -8.023438 6.445312 -8.25 C 6.703125 -8.441406 6.734375 -8.859375 6.539062 -9.117188 C 5.316406 -10.535156 4.15625 -10.503906 3.382812 -10.246094 C 0.902344 -9.375 -0.773438 -4.609375 -0.835938 -2.417969 C -0.871094 -1.515625 -0.613281 -0.933594 -0.0976562 -0.742188 C 0.707031 -0.417969 1.515625 -1.289062 1.773438 -1.578125 C 2.867188 -2.769531 3.867188 -4.058594 4.574219 -5.058594 C 4.929688 -1.386719 5.800781 0.449219 7.25 0.773438 C 7.378906 0.773438 7.507812 0.804688 7.636719 0.804688 C 9.828125 0.804688 12.179688 -3.027344 13.757812 -6.316406 C 13.917969 -6.636719 13.789062 -6.992188 13.46875 -7.152344 Z M 13.46875 -7.152344 "/></g></g></g><g fill="#ffffff" fill-opacity="1"><g transform="translate(166.944847, 196.352858)"><g><path d="M 12.953125 -7.183594 C 12.664062 -7.347656 12.277344 -7.25 12.113281 -6.925781 C 11.339844 -5.605469 9.3125 -2.03125 8.152344 -2.160156 C 7.925781 -2.191406 7.28125 -2.511719 6.636719 -4.769531 C 6.1875 -6.347656 5.574219 -7.828125 4.382812 -7.894531 C 3.511719 -7.957031 2.546875 -7.28125 1.0625 -4.511719 C 1.449219 -5.894531 1.867188 -7.28125 2.191406 -8.410156 C 2.320312 -8.828125 2.417969 -9.183594 2.511719 -9.539062 C 2.609375 -9.859375 2.417969 -10.214844 2.09375 -10.308594 C 1.773438 -10.40625 1.417969 -10.214844 1.320312 -9.859375 C 1.222656 -9.539062 1.128906 -9.152344 1 -8.765625 C 0.160156 -5.894531 -1.09375 -1.546875 -1.417969 1.09375 C -1.449219 1.386719 -1.257812 1.675781 -0.964844 1.738281 C -0.902344 1.773438 -0.871094 1.773438 -0.804688 1.773438 C -0.546875 1.773438 -0.320312 1.609375 -0.226562 1.386719 C 2.804688 -6.152344 4.027344 -6.667969 4.316406 -6.667969 C 4.382812 -6.667969 4.832031 -6.539062 5.445312 -4.414062 C 6.089844 -2.191406 6.925781 -1.0625 8.023438 -0.933594 C 9.664062 -0.742188 11.148438 -2.769531 13.179688 -6.316406 C 13.371094 -6.636719 13.242188 -6.992188 12.953125 -7.183594 Z M 12.953125 -7.183594 "/></g></g></g><g fill="#ffffff" fill-opacity="1"><g transform="translate(178.445518, 196.352858)"><g><path d="M 10.890625 -7.183594 C 10.601562 -7.378906 10.214844 -7.3125 10.019531 -7.023438 C 7.605469 -3.640625 5.636719 -1.515625 3.707031 -0.128906 C 2.738281 0.546875 1.804688 0.675781 1.191406 0.226562 C 0.804688 -0.0625 -0.386719 -1.351562 1 -5.863281 C 4.125 -8.441406 5.832031 -10.890625 5.378906 -12.179688 C 5.21875 -12.566406 4.832031 -12.824219 4.414062 -12.824219 C 3.125 -12.792969 1.160156 -10.566406 -0.128906 -6.410156 C -1.707031 -1.289062 -0.417969 0.578125 0.484375 1.222656 C 0.933594 1.578125 1.449219 1.738281 2.03125 1.738281 C 2.769531 1.738281 3.609375 1.449219 4.414062 0.871094 C 6.476562 -0.613281 8.507812 -2.804688 11.019531 -6.316406 C 11.210938 -6.605469 11.148438 -6.992188 10.890625 -7.183594 Z M 4.15625 -11.46875 C 4.027344 -10.953125 3.480469 -9.921875 1.964844 -8.378906 C 2.804688 -10.246094 3.707031 -11.148438 4.15625 -11.46875 Z M 4.15625 -11.46875 "/></g></g></g><g fill="#ffffff" fill-opacity="1"><g transform="translate(187.820014, 196.352858)"><g/></g></g><g fill="#ffffff" fill-opacity="1"><g transform="translate(197.70994, 196.352858)"><g><path d="M 34.476562 -31.09375 C 29.640625 -31.027344 22.296875 -29.964844 15.980469 -28.449219 C 16.046875 -28.707031 16.109375 -28.996094 16.175781 -29.222656 C 16.238281 -29.578125 16.011719 -29.898438 15.691406 -29.964844 C 15.335938 -30.0625 15.015625 -29.835938 14.949219 -29.511719 C 14.851562 -29.0625 14.757812 -28.613281 14.628906 -28.097656 C 9.3125 -26.742188 3.222656 -24.617188 2.417969 -21.910156 C 2.160156 -21.136719 2.253906 -19.976562 3.929688 -18.816406 C 4.058594 -18.71875 4.15625 -18.6875 4.285156 -18.6875 C 4.480469 -18.6875 4.671875 -18.785156 4.800781 -18.976562 C 4.992188 -19.234375 4.929688 -19.621094 4.640625 -19.816406 C 3.351562 -20.71875 3.511719 -21.328125 3.578125 -21.554688 C 4.125 -23.328125 8.636719 -25.195312 14.304688 -26.742188 C 13.695312 -24.164062 12.886719 -21.070312 12.050781 -17.882812 C 11.277344 -14.980469 10.503906 -11.953125 9.761719 -8.988281 C 5.574219 -7.863281 2.03125 -6.667969 1.191406 -5.863281 C 0.964844 -5.636719 0.933594 -5.25 1.191406 -4.992188 C 1.289062 -4.863281 1.480469 -4.800781 1.644531 -4.800781 C 1.773438 -4.800781 1.933594 -4.863281 2.0625 -4.992188 C 2.511719 -5.414062 4.960938 -6.378906 9.410156 -7.605469 C 7.765625 -0.933594 6.410156 5.347656 6.347656 9.117188 C 6.316406 11.179688 6.832031 12.40625 7.894531 12.855469 C 8.183594 12.984375 8.472656 13.015625 8.796875 13.015625 C 11.46875 13.015625 15.691406 9.117188 20.492188 4.445312 C 20.847656 4.09375 21.199219 3.769531 21.492188 3.480469 L 22.039062 2.933594 C 22.167969 2.835938 22.296875 2.675781 22.457031 2.546875 C 22.488281 2.609375 22.523438 2.640625 22.554688 2.675781 C 22.84375 2.867188 23.230469 2.804688 23.425781 2.546875 C 24.679688 0.871094 25.164062 0.226562 24.617188 -0.257812 C 24.132812 -0.707031 23.554688 -0.191406 22.941406 0.386719 C 22.457031 0.835938 21.84375 1.417969 21.167969 2.0625 L 20.652344 2.578125 C 20.332031 2.898438 19.976562 3.222656 19.621094 3.542969 C 16.398438 6.703125 10.40625 12.597656 8.378906 11.726562 C 7.699219 11.4375 7.570312 10.148438 7.605469 9.152344 C 7.667969 5.378906 9.085938 -1.191406 10.792969 -7.992188 C 11.535156 -8.183594 12.308594 -8.410156 13.144531 -8.601562 C 18.71875 -10.019531 23.90625 -11.019531 25.195312 -10.953125 C 25.550781 -10.921875 25.839844 -11.179688 25.839844 -11.535156 C 25.871094 -11.890625 25.613281 -12.179688 25.261719 -12.179688 C 23.714844 -12.277344 17.078125 -10.921875 11.117188 -9.375 C 11.824219 -12.148438 12.566406 -14.949219 13.242188 -17.558594 C 14.144531 -21.039062 15.015625 -24.359375 15.660156 -27.066406 C 22.007812 -28.675781 29.480469 -29.769531 34.507812 -29.835938 C 34.828125 -29.835938 35.121094 -30.125 35.121094 -30.480469 C 35.121094 -30.800781 34.828125 -31.058594 34.476562 -31.09375 Z M 34.476562 -31.09375 "/></g></g></g><g fill="#ffffff" fill-opacity="1"><g transform="translate(225.028061, 196.352858)"><g><path d="M 9.472656 -30.191406 C 9.246094 -30.480469 8.925781 -30.609375 8.601562 -30.578125 C 6.765625 -30.253906 4.800781 -23.390625 4.253906 -21.296875 C 2.640625 -15.144531 0.613281 -6.410156 -1.03125 1.417969 C -1.804688 5.121094 -2.417969 8.25 -2.804688 10.503906 C -3.449219 14.304688 -3.351562 14.789062 -2.738281 14.949219 C -2.675781 14.980469 -2.609375 14.980469 -2.546875 14.980469 C -1.964844 14.980469 -1.675781 14.210938 -1.386719 13.371094 C -1.289062 13.050781 -1.449219 12.695312 -1.773438 12.597656 C -1.804688 12.566406 -1.835938 12.566406 -1.867188 12.566406 C -1.191406 7.925781 1.578125 -5.574219 4.414062 -16.882812 C 4.414062 -16.914062 4.445312 -16.949219 4.480469 -16.980469 C 8.667969 -23.617188 10.308594 -28.902344 9.472656 -30.191406 Z M 5.507812 -21.234375 C 6.734375 -25.777344 7.828125 -27.96875 8.410156 -28.867188 C 8.28125 -27.675781 7.570312 -25.097656 5.507812 -21.234375 Z M 5.507812 -21.234375 "/></g></g></g><g fill="#ffffff" fill-opacity="1"><g transform="translate(229.924702, 196.352858)"><g><path d="M 10.632812 -7.3125 C 10.34375 -7.476562 9.957031 -7.410156 9.792969 -7.121094 C 7.605469 -3.800781 3.964844 1.738281 1.578125 1.222656 C 1.191406 1.128906 0.871094 0.871094 0.644531 0.449219 C 0 -0.707031 0.0976562 -3.027344 0.835938 -5.058594 C 1.644531 -7.21875 2.609375 -7.765625 2.804688 -7.734375 C 2.835938 -7.699219 3.027344 -7.28125 2.769531 -6.28125 C 2.675781 -5.929688 2.867188 -5.605469 3.191406 -5.507812 C 3.542969 -5.445312 3.867188 -5.636719 3.964844 -5.960938 C 4.574219 -8.28125 3.511719 -8.796875 3.191406 -8.925781 C 1.996094 -9.28125 0.546875 -7.863281 -0.320312 -5.476562 C -1.0625 -3.480469 -1.386719 -0.644531 -0.417969 1.0625 C -0.03125 1.804688 0.578125 2.253906 1.320312 2.417969 C 1.515625 2.480469 1.707031 2.480469 1.902344 2.480469 C 4.703125 2.480469 7.734375 -1.738281 10.824219 -6.445312 C 11.019531 -6.734375 10.921875 -7.121094 10.632812 -7.3125 Z M 10.632812 -7.3125 "/></g></g></g><g fill="#ffffff" fill-opacity="1"><g transform="translate(239.460273, 196.352858)"><g><path d="M 11.664062 -6.992188 C 11.375 -7.21875 10.988281 -7.152344 10.792969 -6.894531 C 9.441406 -5.15625 7.21875 -3.707031 5.507812 -4.027344 C 5.542969 -4.253906 5.574219 -4.480469 5.574219 -4.703125 C 5.800781 -8.34375 4.671875 -9.085938 3.996094 -9.214844 C 3.222656 -9.375 2.417969 -8.796875 2.03125 -7.828125 C 1.867188 -7.894531 1.675781 -7.894531 1.515625 -7.765625 C 0.226562 -6.960938 -0.835938 -4.898438 -0.257812 -2.675781 C 0.128906 -1.351562 1.03125 -0.515625 2.222656 -0.515625 C 3.351562 -0.515625 4.542969 -1.351562 5.15625 -2.835938 C 7.410156 -2.351562 10.117188 -4.027344 11.761719 -6.121094 C 11.984375 -6.410156 11.921875 -6.796875 11.664062 -6.992188 Z M 2.253906 -1.738281 C 2.222656 -1.738281 2.222656 -1.738281 2.222656 -1.738281 C 1.417969 -1.773438 1.0625 -2.546875 0.964844 -2.996094 C 0.644531 -4.09375 0.902344 -5.605469 1.804688 -6.445312 C 1.867188 -5.347656 2.480469 -4.15625 4.027344 -3.320312 C 3.578125 -2.289062 2.804688 -1.738281 2.253906 -1.738281 Z M 4.351562 -4.769531 C 4.316406 -4.703125 4.316406 -4.640625 4.316406 -4.574219 C 3.09375 -5.378906 2.898438 -6.410156 3.125 -7.21875 C 3.285156 -7.734375 3.609375 -7.992188 3.769531 -7.992188 C 3.929688 -7.957031 4.480469 -7.347656 4.351562 -4.769531 Z M 4.351562 -4.769531 "/></g></g></g><g fill="#ffffff" fill-opacity="1"><g transform="translate(249.768996, 196.352858)"><g><path d="M 12.824219 -6.960938 C 12.535156 -7.121094 12.148438 -7.023438 11.984375 -6.734375 C 8.925781 -1.835938 6.347656 0.355469 5.800781 0.160156 C 5.800781 0.160156 5.15625 -0.191406 5.765625 -3.898438 C 5.992188 -5.15625 6.089844 -5.863281 5.476562 -6.121094 C 4.898438 -6.347656 4.542969 -5.863281 3.867188 -4.898438 C 3.320312 -4.125 2.578125 -3.09375 1.773438 -2.382812 C 1.675781 -2.320312 1.320312 -1.996094 1.160156 -2.125 C 0.675781 -2.511719 0.578125 -4.609375 1.707031 -6.539062 C 1.902344 -6.832031 1.773438 -7.21875 1.480469 -7.410156 C 1.191406 -7.570312 0.804688 -7.476562 0.644531 -7.183594 C -0.644531 -4.929688 -0.773438 -2.125 0.355469 -1.191406 C 0.644531 -0.933594 1.449219 -0.484375 2.578125 -1.417969 C 3.320312 -2.0625 3.964844 -2.898438 4.480469 -3.609375 C 4.027344 -0.613281 4.285156 0.902344 5.347656 1.320312 C 5.507812 1.386719 5.671875 1.386719 5.800781 1.386719 C 8.25 1.386719 12.210938 -4.800781 13.015625 -6.089844 C 13.210938 -6.378906 13.113281 -6.765625 12.824219 -6.960938 Z M 12.824219 -6.960938 "/></g></g></g><g fill="#ffffff" fill-opacity="1"><g transform="translate(261.301882, 196.352858)"><g><path d="M 13.46875 -7.152344 C 13.179688 -7.28125 12.792969 -7.152344 12.664062 -6.863281 C 10.214844 -1.867188 8.378906 -0.289062 7.507812 -0.449219 C 7.152344 -0.515625 5.992188 -1.191406 5.703125 -6.832031 C 5.703125 -7.089844 5.507812 -7.3125 5.285156 -7.378906 C 5.027344 -7.441406 4.738281 -7.378906 4.609375 -7.152344 C 4.414062 -6.925781 4.222656 -6.667969 4.027344 -6.378906 C 3.222656 -5.285156 2.160156 -3.800781 0.871094 -2.417969 C 0.675781 -2.191406 0.515625 -2.0625 0.417969 -1.996094 C 0.191406 -3.125 1.386719 -7.441406 3.285156 -8.796875 C 3.835938 -9.183594 4.574219 -9.472656 5.574219 -8.3125 C 5.800781 -8.054688 6.1875 -8.023438 6.445312 -8.25 C 6.703125 -8.441406 6.734375 -8.859375 6.539062 -9.117188 C 5.316406 -10.535156 4.15625 -10.503906 3.382812 -10.246094 C 0.902344 -9.375 -0.773438 -4.609375 -0.835938 -2.417969 C -0.871094 -1.515625 -0.613281 -0.933594 -0.0976562 -0.742188 C 0.707031 -0.417969 1.515625 -1.289062 1.773438 -1.578125 C 2.867188 -2.769531 3.867188 -4.058594 4.574219 -5.058594 C 4.929688 -1.386719 5.800781 0.449219 7.25 0.773438 C 7.378906 0.773438 7.507812 0.804688 7.636719 0.804688 C 9.828125 0.804688 12.179688 -3.027344 13.757812 -6.316406 C 13.917969 -6.636719 13.789062 -6.992188 13.46875 -7.152344 Z M 13.46875 -7.152344 "/></g></g></g><g fill="#ffffff" fill-opacity="1"><g transform="translate(273.285768, 196.352858)"><g><path d="M 15.753906 -7.089844 C 15.5625 -7.378906 15.175781 -7.441406 14.886719 -7.25 C 12.113281 -5.445312 9.28125 -3.449219 6.574219 -0.933594 C 6.960938 -3.320312 7.347656 -5.863281 7.699219 -8.539062 C 7.765625 -8.828125 7.570312 -9.117188 7.28125 -9.214844 C 7.023438 -9.3125 6.703125 -9.183594 6.574219 -8.925781 C 5.929688 -7.828125 4.511719 -5.574219 3.253906 -4.058594 C 2.804688 -3.511719 2.351562 -3.222656 2.125 -3.382812 C 1.578125 -3.707031 1.191406 -5.929688 2.449219 -8.988281 C 2.578125 -9.3125 2.417969 -9.664062 2.125 -9.792969 C 1.804688 -9.921875 1.449219 -9.761719 1.320312 -9.441406 C 0 -6.21875 0.0625 -3.15625 1.515625 -2.320312 C 1.867188 -2.0625 2.898438 -1.707031 4.1875 -3.253906 C 4.863281 -4.058594 5.507812 -4.960938 6.089844 -5.832031 C 5.765625 -3.609375 5.445312 -1.480469 5.089844 0.546875 C 2.382812 3.320312 -0.160156 6.667969 -2.351562 10.921875 C -6.023438 17.980469 -6.703125 25.808594 -4.863281 28.0625 C -4.511719 28.515625 -4.058594 28.742188 -3.578125 28.742188 C -3.414062 28.742188 -3.285156 28.707031 -3.125 28.675781 C -1.03125 28.0625 0.835938 23.425781 2.0625 19.621094 C 3.578125 14.886719 4.960938 8.699219 6.25 1.128906 C 9.246094 -1.867188 12.4375 -4.1875 15.5625 -6.21875 C 15.851562 -6.410156 15.949219 -6.796875 15.753906 -7.089844 Z M 0.871094 19.234375 C -1.449219 26.582031 -3.125 27.386719 -3.449219 27.484375 C -3.578125 27.515625 -3.707031 27.515625 -3.898438 27.289062 C -5.058594 25.871094 -5.15625 19.011719 -1.257812 11.46875 C 0.546875 8.023438 2.546875 5.1875 4.703125 2.769531 C 3.542969 9.441406 2.253906 14.949219 0.871094 19.234375 Z M 0.871094 19.234375 "/></g></g></g></svg>