<svg xmlns="http://www.w3.org/2000/svg" xmlns:xlink="http://www.w3.org/1999/xlink" zoomAndPan="magnify" preserveAspectRatio="xMidYMid meet" version="1.0" viewBox="102.36 154.61 169.61 56.39"><defs><g/></defs><g fill="#49475c" fill-opacity="1"><g transform="translate(102.010468, 206.74917)"><g><path d="M 34.039062 -51.628906 C 31.847656 -53.121094 26.625 -51.320312 18.378906 -46.191406 C 6.140625 -38.644531 0.132812 -32.636719 0.351562 -28.160156 C 0.746094 -24.214844 5.484375 -22.238281 14.5625 -22.238281 C 18.554688 -22.238281 21.363281 -21.84375 22.898438 -21.011719 C 24.433594 -20.179688 24.960938 -18.992188 24.519531 -17.457031 C 24.039062 -15.878906 22.808594 -13.992188 20.835938 -11.84375 C 17.941406 -8.730469 15.089844 -6.449219 12.324219 -5 C 9.5625 -3.554688 7.238281 -2.808594 5.394531 -2.71875 C 3.554688 -2.632812 2.589844 -3.027344 2.457031 -3.902344 C 2.457031 -5.089844 3.773438 -6.710938 6.359375 -8.773438 C 6.710938 -9.078125 6.886719 -9.386719 6.886719 -9.695312 C 6.84375 -10 6.710938 -10.175781 6.449219 -10.308594 C 6.183594 -10.394531 5.878906 -10.308594 5.484375 -10.089844 C 3.421875 -8.464844 2.105469 -7.0625 1.449219 -5.964844 C 0.789062 -4.867188 0.484375 -3.992188 0.613281 -3.332031 C 0.789062 -1.796875 1.972656 -0.964844 4.210938 -0.921875 C 6.449219 -0.832031 9.167969 -1.621094 12.414062 -3.246094 C 15.617188 -4.867188 18.863281 -7.414062 22.109375 -10.878906 C 24.871094 -13.992188 26.320312 -16.535156 26.496094 -18.46875 C 26.625 -20.398438 25.703125 -21.800781 23.6875 -22.722656 C 21.625 -23.597656 18.773438 -24.039062 15.046875 -24.039062 C 11.054688 -24.039062 7.941406 -24.433594 5.703125 -25.265625 C 3.464844 -26.097656 2.324219 -27.238281 2.191406 -28.730469 C 2.0625 -29.390625 2.414062 -30.398438 3.203125 -31.757812 C 3.949219 -33.117188 5.570312 -34.828125 8.027344 -36.976562 C 10.441406 -39.128906 14.125 -41.714844 19.039062 -44.742188 C 23.554688 -47.503906 26.890625 -49.214844 28.949219 -49.832031 C 31.011719 -50.445312 32.285156 -50.53125 32.765625 -50.050781 C 33.511719 -49.4375 33.777344 -48.339844 33.46875 -46.761719 C 33.160156 -45.136719 32.722656 -43.558594 32.195312 -42.023438 L 31.757812 -40.574219 C 31.671875 -40.179688 31.757812 -39.917969 32.019531 -39.785156 C 32.242188 -39.652344 32.546875 -39.652344 32.855469 -39.785156 C 33.160156 -39.917969 33.382812 -40.136719 33.511719 -40.53125 C 33.6875 -41.058594 33.863281 -41.582031 34.039062 -42.152344 C 34.652344 -43.996094 35.089844 -45.839844 35.355469 -47.636719 C 35.617188 -49.4375 35.179688 -50.796875 34.039062 -51.628906 Z M 34.039062 -51.628906 "/></g></g></g><g fill="#49475c" fill-opacity="1"><g transform="translate(134.637677, 206.74917)"><g><path d="M 4.914062 -19.914062 C 4.472656 -20.089844 4.210938 -20.308594 4.078125 -20.617188 C 3.949219 -20.921875 3.902344 -21.1875 4.035156 -21.449219 C 4.167969 -21.757812 4.34375 -21.933594 4.5625 -21.933594 C 4.78125 -21.933594 4.914062 -21.757812 5.042969 -21.449219 C 5.132812 -21.097656 5.089844 -20.574219 4.914062 -19.914062 Z M 13.640625 -21.757812 C 11.359375 -20.179688 8.992188 -19.476562 6.578125 -19.609375 C 7.0625 -21.230469 7.0625 -22.328125 6.492188 -22.984375 C 5.921875 -23.644531 5.175781 -23.820312 4.296875 -23.597656 C 3.421875 -23.378906 2.761719 -22.722656 2.324219 -21.625 C 2.0625 -20.96875 2.0625 -20.308594 2.28125 -19.695312 C 2.5 -19.039062 3.070312 -18.554688 3.949219 -18.246094 C 3.554688 -17.851562 3.070312 -17.632812 2.542969 -17.632812 C 1.710938 -17.632812 1.316406 -18.027344 1.273438 -18.773438 C 1.226562 -19.519531 1.402344 -20.351562 1.796875 -21.1875 C 1.929688 -21.582031 1.929688 -21.886719 1.710938 -22.0625 C 1.492188 -22.238281 1.226562 -22.285156 0.921875 -22.238281 C 0.613281 -22.152344 0.351562 -21.933594 0.132812 -21.539062 C -0.613281 -19.738281 -0.789062 -18.335938 -0.308594 -17.328125 C 0.175781 -16.316406 0.964844 -15.835938 2.0625 -15.835938 C 3.378906 -15.835938 4.605469 -16.535156 5.703125 -17.898438 C 7.019531 -17.765625 8.464844 -17.898438 10.089844 -18.292969 C 11.667969 -18.6875 13.160156 -19.433594 14.5625 -20.484375 C 14.871094 -20.792969 15.046875 -21.054688 15 -21.363281 C 14.957031 -21.667969 14.828125 -21.84375 14.5625 -21.976562 C 14.300781 -22.109375 13.992188 -22.019531 13.640625 -21.757812 Z M 13.640625 -21.757812 "/></g></g></g><g fill="#49475c" fill-opacity="1"><g transform="translate(148.0983, 206.74917)"><g><path d="M 17.28125 -21.667969 C 14.257812 -18.90625 11.800781 -17.589844 9.957031 -17.765625 C 8.949219 -17.898438 8.421875 -18.378906 8.378906 -19.167969 C 8.335938 -19.957031 8.464844 -20.878906 8.773438 -21.886719 C 8.816406 -22.109375 8.859375 -22.285156 8.90625 -22.503906 C 8.992188 -22.898438 8.949219 -23.160156 8.730469 -23.292969 C 8.507812 -23.421875 8.246094 -23.421875 7.941406 -23.378906 C 7.632812 -23.292969 7.414062 -23.074219 7.195312 -22.722656 C 5.394531 -19.386719 3.773438 -17.722656 2.238281 -17.722656 C 1.753906 -17.722656 1.449219 -17.984375 1.359375 -18.511719 C 1.273438 -19.039062 1.316406 -19.652344 1.492188 -20.351562 C 1.667969 -21.054688 1.886719 -21.714844 2.105469 -22.285156 C 2.238281 -22.679688 2.238281 -22.941406 2.019531 -23.117188 C 1.796875 -23.292969 1.492188 -23.335938 1.183594 -23.25 C 0.878906 -23.160156 0.613281 -22.941406 0.4375 -22.546875 C -0.0429688 -21.449219 -0.308594 -20.441406 -0.4375 -19.433594 C -0.570312 -18.421875 -0.4375 -17.632812 -0.132812 -16.976562 C 0.175781 -16.316406 0.832031 -15.964844 1.796875 -15.964844 C 2.191406 -15.964844 2.851562 -16.140625 3.683594 -16.449219 C 4.519531 -16.757812 5.484375 -17.546875 6.535156 -18.730469 C 6.578125 -17.765625 6.929688 -17.0625 7.5 -16.625 C 8.070312 -16.1875 8.859375 -15.964844 9.871094 -15.964844 C 12.195312 -15.964844 15.046875 -17.503906 18.335938 -20.527344 C 18.640625 -20.835938 18.773438 -21.144531 18.730469 -21.449219 C 18.6875 -21.714844 18.511719 -21.886719 18.246094 -21.976562 C 17.941406 -22.0625 17.632812 -21.976562 17.28125 -21.667969 Z M 17.28125 -21.667969 "/></g></g></g><g fill="#49475c" fill-opacity="1"><g transform="translate(165.111532, 206.74917)"><g><path d="M 5.660156 -30.792969 C 6.007812 -31.277344 6.402344 -31.671875 6.800781 -31.976562 C 7.195312 -32.285156 7.542969 -32.460938 7.851562 -32.460938 C 8.113281 -32.460938 8.246094 -32.242188 8.246094 -31.847656 C 8.203125 -30.660156 7.542969 -29.082031 6.316406 -27.195312 C 5.042969 -25.265625 3.554688 -23.644531 1.796875 -22.285156 C 2.9375 -25.925781 4.210938 -28.730469 5.660156 -30.792969 Z M -2.71875 0.65625 C -2.675781 -1.054688 -2.414062 -3.378906 -1.929688 -6.273438 C -1.84375 -3.597656 -2.105469 -1.273438 -2.71875 0.65625 Z M -2.9375 -13.511719 C -2.71875 -13.554688 -2.5 -13.554688 -2.28125 -13.597656 C -2.324219 -13.378906 -2.367188 -13.203125 -2.414062 -13.027344 C -2.589844 -13.160156 -2.761719 -13.335938 -2.9375 -13.511719 Z M 11.535156 -21.449219 C 10.394531 -20.179688 8.773438 -19.082031 6.667969 -18.117188 C 4.5625 -17.105469 2.324219 -16.363281 -0.0429688 -15.792969 C 0.308594 -17.238281 0.703125 -18.640625 1.097656 -20.003906 C 3.597656 -21.449219 5.703125 -23.421875 7.414062 -25.96875 C 9.125 -28.46875 10 -30.574219 10.089844 -32.285156 C 10 -33.820312 9.210938 -34.476562 7.675781 -34.171875 C 6.140625 -33.863281 4.472656 -32.152344 2.675781 -28.949219 C 1.667969 -26.890625 0.789062 -24.609375 0.0429688 -22.195312 C -0.746094 -19.78125 -1.402344 -17.503906 -1.886719 -15.398438 C -3.378906 -15.089844 -4.738281 -14.957031 -5.921875 -14.957031 C -6.230469 -14.957031 -6.492188 -14.828125 -6.710938 -14.605469 C -6.929688 -14.34375 -7.0625 -14.082031 -7.0625 -13.816406 C -7.0625 -13.511719 -6.886719 -13.335938 -6.578125 -13.246094 C -4.957031 -12.765625 -3.773438 -11.800781 -2.984375 -10.308594 C -3.464844 -7.941406 -3.816406 -5.660156 -4.078125 -3.464844 C -4.296875 -1.929688 -4.429688 -0.65625 -4.472656 0.308594 C -4.519531 1.273438 -4.519531 2.019531 -4.472656 2.589844 C -4.429688 3.160156 -4.386719 3.554688 -4.253906 3.773438 C -4.125 3.992188 -3.992188 4.125 -3.816406 4.167969 C -3.683594 4.210938 -3.507812 4.253906 -3.378906 4.253906 C -3.027344 4.253906 -2.71875 4.125 -2.457031 3.859375 C -2.191406 3.597656 -1.972656 3.289062 -1.796875 2.9375 C -1.667969 2.632812 -1.535156 2.367188 -1.449219 2.148438 C -0.789062 0.484375 -0.308594 -1.578125 -0.0859375 -4.078125 C 0.132812 -6.578125 -0.175781 -8.859375 -1.097656 -11.011719 C -0.878906 -12.019531 -0.65625 -12.984375 -0.4375 -13.992188 C 2.105469 -14.5625 4.605469 -15.398438 7.019531 -16.492188 C 9.429688 -17.589844 11.40625 -18.90625 12.851562 -20.527344 C 13.117188 -20.878906 13.203125 -21.1875 13.070312 -21.449219 C 12.941406 -21.667969 12.765625 -21.84375 12.457031 -21.886719 C 12.152344 -21.933594 11.84375 -21.757812 11.535156 -21.449219 Z M 11.535156 -21.449219 "/></g></g></g><g fill="#49475c" fill-opacity="1"><g transform="translate(176.379178, 206.74917)"><g><path d="M 1.753906 -24.5625 L 1.667969 -24.5625 C 1.449219 -24.609375 1.273438 -24.695312 1.183594 -24.914062 C 1.054688 -25.089844 1.054688 -25.308594 1.140625 -25.527344 C 1.183594 -25.703125 1.226562 -25.878906 1.273438 -26.011719 L 1.316406 -26.011719 C 1.402344 -26.363281 1.535156 -26.757812 1.753906 -27.152344 C 1.886719 -27.371094 2.0625 -27.589844 2.28125 -27.722656 C 2.5 -27.855469 2.71875 -27.898438 2.9375 -27.855469 C 3.160156 -27.808594 3.332031 -27.679688 3.421875 -27.503906 C 3.507812 -27.285156 3.507812 -27.066406 3.378906 -26.84375 L 3.027344 -25.878906 L 2.851562 -25.355469 C 2.761719 -25.132812 2.632812 -24.914062 2.414062 -24.785156 C 2.191406 -24.652344 1.972656 -24.5625 1.753906 -24.5625 Z M 10.351562 -21.667969 C 7.324219 -18.90625 4.867188 -17.589844 3.027344 -17.765625 C 2.105469 -17.898438 1.578125 -18.335938 1.492188 -19.167969 C 1.402344 -20.003906 1.535156 -21.011719 1.929688 -22.238281 C 2.019531 -22.722656 1.929688 -23.027344 1.710938 -23.160156 C 1.492188 -23.292969 1.183594 -23.292969 0.878906 -23.160156 C 0.527344 -23.027344 0.261719 -22.722656 0.132812 -22.238281 C -0.21875 -21.054688 -0.394531 -19.957031 -0.394531 -19.039062 C -0.394531 -18.117188 -0.132812 -17.371094 0.351562 -16.800781 C 0.832031 -16.230469 1.710938 -15.964844 2.9375 -15.964844 C 5.265625 -15.964844 8.113281 -17.503906 11.40625 -20.527344 C 11.710938 -20.835938 11.84375 -21.144531 11.800781 -21.449219 C 11.753906 -21.714844 11.582031 -21.886719 11.316406 -21.976562 C 11.011719 -22.0625 10.703125 -21.976562 10.351562 -21.667969 Z M 10.351562 -21.667969 "/></g></g></g><g fill="#49475c" fill-opacity="1"><g transform="translate(186.550332, 206.74917)"><g><path d="M 15.089844 -21.667969 C 12.019531 -18.90625 9.5625 -17.589844 7.71875 -17.765625 C 6.667969 -17.898438 6.140625 -18.421875 6.140625 -19.300781 C 6.097656 -20.132812 6.273438 -21.144531 6.625 -22.238281 L 6.710938 -22.503906 C 6.753906 -22.898438 6.710938 -23.160156 6.492188 -23.292969 C 6.273438 -23.421875 6.007812 -23.421875 5.703125 -23.335938 C 5.394531 -23.25 5.175781 -23.027344 5 -22.679688 C 4.253906 -21.316406 3.597656 -20.265625 3.070312 -19.5625 C 2.542969 -18.816406 2.148438 -18.335938 1.84375 -18.117188 C 1.535156 -17.851562 1.316406 -17.722656 1.226562 -17.722656 C 1.183594 -17.722656 1.097656 -17.722656 1.054688 -17.765625 C 0.964844 -17.765625 0.878906 -17.808594 0.832031 -17.898438 C 0.789062 -17.984375 0.746094 -18.117188 0.746094 -18.335938 C 0.746094 -18.773438 0.878906 -19.257812 1.140625 -19.828125 C 1.359375 -20.351562 1.621094 -20.792969 1.929688 -21.144531 C 2.238281 -21.492188 2.457031 -21.582031 2.675781 -21.40625 C 2.894531 -21.1875 3.203125 -21.144531 3.507812 -21.273438 C 3.816406 -21.40625 4.078125 -21.625 4.253906 -21.933594 C 4.386719 -22.238281 4.386719 -22.503906 4.167969 -22.765625 C 3.507812 -23.421875 2.761719 -23.511719 1.929688 -23.074219 C 1.097656 -22.632812 0.394531 -21.933594 -0.175781 -20.921875 C -0.789062 -19.914062 -1.097656 -18.863281 -1.097656 -17.808594 C -1.007812 -16.582031 -0.394531 -15.964844 0.746094 -15.964844 C 1.84375 -15.964844 3.027344 -16.84375 4.296875 -18.554688 C 4.429688 -17.632812 4.78125 -16.976562 5.351562 -16.582031 C 5.921875 -16.1875 6.667969 -15.964844 7.632812 -15.964844 C 9.957031 -15.964844 12.808594 -17.503906 16.140625 -20.527344 C 16.449219 -20.835938 16.582031 -21.144531 16.535156 -21.449219 C 16.449219 -21.714844 16.273438 -21.886719 16.011719 -21.976562 C 15.703125 -22.0625 15.398438 -21.976562 15.089844 -21.667969 Z M 15.089844 -21.667969 "/></g></g></g><g fill="#49475c" fill-opacity="1"><g transform="translate(201.458315, 206.74917)"><g><path d="M 19.386719 -21.84375 C 19.082031 -21.625 18.773438 -21.363281 18.46875 -21.144531 C 17.457031 -20.351562 16.40625 -19.609375 15.265625 -18.863281 C 14.082031 -18.117188 13.070312 -17.722656 12.152344 -17.722656 C 11.582031 -17.722656 11.230469 -17.898438 11.054688 -18.203125 C 10.835938 -18.511719 10.746094 -19.125 10.746094 -19.957031 C 10.789062 -20.441406 10.746094 -20.921875 10.703125 -21.449219 C 10.617188 -21.933594 10.394531 -22.371094 10.089844 -22.722656 C 9.78125 -23.074219 9.210938 -23.25 8.464844 -23.25 C 7.371094 -23.25 6.140625 -22.808594 4.867188 -21.933594 C 3.597656 -21.011719 2.28125 -19.957031 0.964844 -18.6875 C 1.183594 -19.519531 1.402344 -20.351562 1.621094 -21.144531 C 1.753906 -21.625 1.886719 -22.019531 1.972656 -22.371094 C 2.0625 -22.765625 1.972656 -23.027344 1.753906 -23.160156 C 1.492188 -23.292969 1.183594 -23.292969 0.878906 -23.160156 C 0.570312 -23.027344 0.351562 -22.765625 0.21875 -22.371094 C 0.0859375 -21.976562 -0.0429688 -21.539062 -0.175781 -21.054688 C -0.394531 -20.265625 -0.570312 -19.476562 -0.789062 -18.6875 C -1.007812 -17.898438 -1.097656 -17.28125 -1.140625 -16.800781 C -1.183594 -16.230469 -1.007812 -15.921875 -0.613281 -15.792969 C -0.261719 -15.660156 0.21875 -15.835938 0.789062 -16.363281 C 2.105469 -17.632812 3.421875 -18.816406 4.738281 -19.914062 C 6.007812 -20.96875 7.105469 -21.492188 7.984375 -21.492188 C 8.378906 -21.492188 8.640625 -21.363281 8.773438 -21.097656 C 8.90625 -20.792969 8.949219 -20.265625 8.949219 -19.476562 C 8.90625 -18.992188 8.949219 -18.46875 9.035156 -17.941406 C 9.125 -17.371094 9.34375 -16.933594 9.738281 -16.535156 C 10.132812 -16.140625 10.746094 -15.964844 11.667969 -15.964844 C 12.894531 -15.964844 14.167969 -16.40625 15.527344 -17.238281 C 16.886719 -18.074219 18.160156 -18.949219 19.34375 -19.871094 C 19.652344 -20.089844 19.914062 -20.308594 20.222656 -20.527344 C 20.574219 -20.835938 20.746094 -21.097656 20.746094 -21.40625 C 20.703125 -21.714844 20.574219 -21.886719 20.308594 -22.019531 C 20.046875 -22.152344 19.738281 -22.0625 19.386719 -21.84375 Z M 19.386719 -21.84375 "/></g></g></g><g fill="#49475c" fill-opacity="1"><g transform="translate(220.532948, 206.74917)"><g><path d="M 4.078125 -21.582031 C 3.683594 -21.363281 3.027344 -21.230469 2.105469 -21.1875 C 2.761719 -21.582031 3.421875 -21.714844 4.078125 -21.582031 Z M 12.894531 -21.800781 C 8.90625 -18.863281 5.484375 -17.503906 2.632812 -17.722656 C 1.972656 -17.765625 1.535156 -17.898438 1.226562 -18.117188 C 0.921875 -18.335938 0.746094 -18.554688 0.703125 -18.816406 C 0.613281 -19.039062 0.613281 -19.300781 0.65625 -19.519531 C 2.367188 -19.300781 3.726562 -19.519531 4.78125 -20.132812 C 5.789062 -20.746094 6.230469 -21.449219 6.097656 -22.285156 C 5.878906 -23.027344 5.265625 -23.421875 4.253906 -23.421875 C 3.246094 -23.378906 2.191406 -23.074219 1.140625 -22.414062 C 0.0429688 -21.757812 -0.65625 -20.792969 -1.054688 -19.609375 C -1.359375 -18.511719 -1.273438 -17.632812 -0.703125 -16.976562 C -0.132812 -16.316406 0.921875 -15.964844 2.457031 -15.964844 C 5.921875 -15.964844 9.648438 -17.457031 13.6875 -20.484375 C 14.035156 -20.746094 14.210938 -21.054688 14.210938 -21.363281 C 14.167969 -21.667969 14.035156 -21.886719 13.816406 -22.019531 C 13.554688 -22.152344 13.246094 -22.0625 12.894531 -21.800781 Z M 12.894531 -21.800781 "/></g></g></g><g fill="#49475c" fill-opacity="1"><g transform="translate(233.204097, 206.74917)"><g><path d="M 4.078125 -21.582031 C 3.683594 -21.363281 3.027344 -21.230469 2.105469 -21.1875 C 2.761719 -21.582031 3.421875 -21.714844 4.078125 -21.582031 Z M 12.894531 -21.800781 C 8.90625 -18.863281 5.484375 -17.503906 2.632812 -17.722656 C 1.972656 -17.765625 1.535156 -17.898438 1.226562 -18.117188 C 0.921875 -18.335938 0.746094 -18.554688 0.703125 -18.816406 C 0.613281 -19.039062 0.613281 -19.300781 0.65625 -19.519531 C 2.367188 -19.300781 3.726562 -19.519531 4.78125 -20.132812 C 5.789062 -20.746094 6.230469 -21.449219 6.097656 -22.285156 C 5.878906 -23.027344 5.265625 -23.421875 4.253906 -23.421875 C 3.246094 -23.378906 2.191406 -23.074219 1.140625 -22.414062 C 0.0429688 -21.757812 -0.65625 -20.792969 -1.054688 -19.609375 C -1.359375 -18.511719 -1.273438 -17.632812 -0.703125 -16.976562 C -0.132812 -16.316406 0.921875 -15.964844 2.457031 -15.964844 C 5.921875 -15.964844 9.648438 -17.457031 13.6875 -20.484375 C 14.035156 -20.746094 14.210938 -21.054688 14.210938 -21.363281 C 14.167969 -21.667969 14.035156 -21.886719 13.816406 -22.019531 C 13.554688 -22.152344 13.246094 -22.0625 12.894531 -21.800781 Z M 12.894531 -21.800781 "/></g></g></g><g fill="#49475c" fill-opacity="1"><g transform="translate(245.875247, 206.74917)"><g><path d="M 12.0625 -21.757812 C 10.175781 -20.222656 8.640625 -19.167969 7.542969 -18.597656 C 6.449219 -18.027344 5.351562 -17.722656 4.34375 -17.722656 C 2.9375 -17.722656 2.105469 -18.378906 1.886719 -19.695312 C 1.667969 -20.96875 1.796875 -22.855469 2.367188 -25.265625 C 2.894531 -27.679688 3.640625 -30.617188 4.5625 -33.996094 C 4.914062 -35.265625 5.265625 -36.582031 5.660156 -37.988281 C 5.789062 -38.558594 5.964844 -39.128906 6.140625 -39.699219 L 6.578125 -41.363281 C 6.667969 -41.757812 6.578125 -42.066406 6.359375 -42.199219 C 6.097656 -42.328125 5.789062 -42.328125 5.484375 -42.199219 C 5.175781 -42.066406 4.957031 -41.757812 4.824219 -41.363281 L 4.34375 -39.699219 C 4.210938 -39.128906 4.035156 -38.558594 3.902344 -37.988281 C 3.554688 -36.671875 3.203125 -35.398438 2.851562 -34.214844 C 1.753906 -30.222656 0.921875 -26.84375 0.351562 -24.167969 C -0.21875 -21.449219 -0.261719 -19.386719 0.21875 -18.027344 C 0.65625 -16.667969 1.886719 -15.964844 3.859375 -15.964844 C 5.308594 -15.964844 6.753906 -16.363281 8.113281 -17.105469 C 9.476562 -17.851562 11.097656 -18.992188 12.984375 -20.527344 C 13.335938 -20.835938 13.511719 -21.097656 13.464844 -21.40625 C 13.421875 -21.714844 13.246094 -21.886719 12.984375 -22.019531 C 12.722656 -22.109375 12.414062 -22.019531 12.0625 -21.757812 Z M 12.0625 -21.757812 "/></g></g></g><g fill="#49475c" fill-opacity="1"><g transform="translate(257.625341, 206.74917)"><g><path d="M 12.984375 -21.886719 C 11.359375 -20.660156 9.78125 -19.652344 8.289062 -18.90625 C 6.753906 -18.117188 5.175781 -17.722656 3.464844 -17.722656 C 2.414062 -17.722656 1.710938 -17.984375 1.359375 -18.511719 C 0.964844 -19.039062 0.921875 -19.652344 1.226562 -20.398438 C 1.449219 -21.011719 1.753906 -21.492188 2.148438 -21.800781 C 2.542969 -22.109375 2.894531 -22.328125 3.246094 -22.414062 C 3.597656 -22.503906 3.859375 -22.503906 3.992188 -22.414062 C 4.125 -22.328125 4.125 -22.152344 3.949219 -21.933594 C 3.640625 -21.625 3.554688 -21.316406 3.640625 -21.054688 C 3.726562 -20.792969 3.902344 -20.617188 4.210938 -20.574219 C 4.519531 -20.527344 4.824219 -20.660156 5.132812 -20.96875 C 6.183594 -22.195312 6.359375 -23.117188 5.703125 -23.730469 C 5 -24.300781 3.992188 -24.390625 2.675781 -23.992188 C 1.359375 -23.554688 0.308594 -22.414062 -0.484375 -20.617188 C -0.964844 -19.34375 -0.921875 -18.246094 -0.308594 -17.328125 C 0.308594 -16.40625 1.402344 -15.964844 2.984375 -15.964844 C 5 -15.964844 6.886719 -16.40625 8.597656 -17.28125 C 10.308594 -18.160156 12.0625 -19.257812 13.816406 -20.574219 C 14.167969 -20.878906 14.34375 -21.144531 14.34375 -21.449219 C 14.300781 -21.757812 14.167969 -21.976562 13.949219 -22.109375 C 13.6875 -22.238281 13.378906 -22.152344 12.984375 -21.886719 Z M 12.984375 -21.886719 "/></g></g></g></svg>