<?xml version="1.0" encoding="UTF-8"?>
<svg xmlns="http://www.w3.org/2000/svg" xmlns:xlink="http://www.w3.org/1999/xlink" viewBox="0 0 16 16" width="16px" height="16px">
<g id="surface129593973">
<path style=" stroke:none;fill-rule:nonzero;fill:rgb(58.431375%,64.705884%,65.098041%);fill-opacity:1;" d="M 14.054688 5.707031 L 10.292969 1.945312 C 9.03125 0.683594 6.96875 0.683594 5.707031 1.945312 L 1.945312 5.707031 C 0.683594 6.96875 0.683594 9.03125 1.945312 10.292969 L 5.710938 14.054688 C 6.96875 15.316406 9.03125 15.316406 10.292969 14.054688 L 14.054688 10.292969 C 15.316406 9.03125 15.316406 6.96875 14.054688 5.707031 Z M 8 10.332031 C 6.710938 10.332031 5.667969 9.289062 5.667969 8 C 5.667969 6.710938 6.710938 5.667969 8 5.667969 C 9.289062 5.667969 10.332031 6.710938 10.332031 8 C 10.332031 9.289062 9.289062 10.332031 8 10.332031 Z M 8 10.332031 "/>
</g>
</svg>
